<svg width="22" height="24" viewBox="0 0 22 24" fill="none" xmlns="http://www.w3.org/2000/svg">
<path d="M21.6987 23.0004H0.301348C0.262371 22.9976 0.22347 23.0085 0.186984 23.0324C0.150498 23.0562 0.11718 23.0926 0.0890317 23.1392C0.0608836 23.1859 0.0384866 23.2419 0.0231867 23.3039C0.00788685 23.3659 0 23.4326 0 23.5C0 23.5674 0.00788685 23.6341 0.0231867 23.6961C0.0384866 23.7581 0.0608836 23.8141 0.0890317 23.8608C0.11718 23.9074 0.150498 23.9438 0.186984 23.9676C0.22347 23.9915 0.262371 24.0024 0.301348 23.9996H21.6987C21.7376 24.0024 21.7765 23.9915 21.813 23.9676C21.8495 23.9438 21.8828 23.9074 21.911 23.8608C21.9391 23.8141 21.9615 23.7581 21.9768 23.6961C21.9921 23.6341 22 23.5674 22 23.5C22 23.4326 21.9921 23.3659 21.9768 23.3039C21.9615 23.2419 21.9391 23.1859 21.911 23.1392C21.8828 23.0926 21.8495 23.0562 21.813 23.0324C21.7765 23.0085 21.7376 22.9976 21.6987 23.0004Z" fill="#525657"/>
<path d="M0.086853 22.9108C0.108441 22.9333 0.133291 22.9521 0.160486 22.9666C0.193923 22.9845 0.230251 22.9959 0.267636 23H0.296581C0.323826 22.9997 0.350935 22.9959 0.377324 22.9889C0.387988 22.9851 0.39916 22.9814 0.409316 22.9766L9.82321 19.107C9.89459 19.0775 9.9524 19.0205 9.98469 18.9477L12.4044 13.4764C13.5963 12.627 21.5492 5.5519 21.8955 5.24346C21.9253 5.21693 21.9497 5.18454 21.9675 5.14813C21.9852 5.11172 21.996 5.07202 21.9991 5.03127C22.0022 4.99053 21.9975 4.94955 21.9855 4.91067C21.9734 4.87179 21.9542 4.83577 21.9288 4.80468C21.9034 4.77359 21.8724 4.74802 21.8376 4.72945C21.8028 4.71087 21.7648 4.69965 21.7258 4.69642C21.6868 4.69319 21.6476 4.69802 21.6104 4.71063C21.5733 4.72324 21.5388 4.74338 21.5091 4.76991C18.7024 7.26507 13.4053 11.9401 12.2049 12.8617L9.69981 10.2417C10.5814 8.9862 15.0507 3.44906 17.4404 0.514857C17.4917 0.451497 17.5168 0.36945 17.5101 0.286765C17.5035 0.20408 17.4658 0.12753 17.4052 0.0739558C17.3445 0.0203815 17.2661 -0.0058289 17.187 0.00109055C17.1079 0.00800999 17.0347 0.0474925 16.9834 0.110852C16.6884 0.472917 9.92477 8.78447 9.11226 10.0336L3.87668 12.5638C3.80713 12.5977 3.75261 12.6581 3.72434 12.7327L0.0223604 22.5716C0.01779 22.5838 0.0137275 22.596 0.0106806 22.6071C0.000893323 22.645 -0.00220433 22.6844 0.00153993 22.7234C0.00584852 22.7615 0.0165042 22.7985 0.0330245 22.8328C0.0473118 22.8613 0.0654387 22.8876 0.086853 22.9108ZM4.23723 13.0772L9.25141 10.6537L11.8138 13.332L9.49313 18.5735L1.52042 21.8528L6.80729 16.3257C7.08375 16.5065 7.41419 16.5745 7.73558 16.5169C8.05698 16.4593 8.34684 16.28 8.54989 16.0133C8.75294 15.7465 8.85497 15.411 8.83652 15.0706C8.81807 14.7303 8.68043 14.4089 8.44985 14.1679C8.21927 13.9268 7.91189 13.7829 7.58633 13.7636C7.26076 13.7444 6.9398 13.851 6.68464 14.0633C6.42949 14.2756 6.258 14.5786 6.20288 14.9146C6.14777 15.2506 6.21288 15.596 6.3858 15.8851L1.09893 21.4127L4.23723 13.0772ZM6.99416 15.6913C6.89204 15.5844 6.82251 15.4483 6.79437 15.3001C6.76622 15.152 6.78074 14.9984 6.83606 14.8588C6.89139 14.7193 6.98505 14.6 7.10521 14.5161C7.22537 14.4322 7.36662 14.3874 7.51112 14.3874C7.65562 14.3874 7.79688 14.4322 7.91703 14.5161C8.03719 14.6 8.13085 14.7193 8.18618 14.8588C8.24151 14.9984 8.25602 15.152 8.22788 15.3001C8.19974 15.4483 8.13021 15.5844 8.02808 15.6913C7.96059 15.7634 7.88002 15.8207 7.79107 15.8598C7.70212 15.8989 7.6066 15.9191 7.51011 15.9191C7.41361 15.9191 7.31809 15.8989 7.22914 15.8598C7.14019 15.8207 7.05962 15.7634 6.99213 15.6913H6.99416Z" fill="#525657"/>
</svg>
