<svg width="21" height="23" viewBox="0 0 21 23" fill="none" xmlns="http://www.w3.org/2000/svg">
<path d="M18.5893 14.2577C18.5897 14.2166 18.5824 14.1758 18.5679 14.1379C18.5534 14.1 18.532 14.0658 18.505 14.0373C18.4782 14.0084 18.4462 13.9859 18.411 13.9715C18.3758 13.9571 18.3382 13.9509 18.3006 13.9535C15.7993 14.0825 13.9476 11.6751 13.9284 11.651C13.9112 11.6285 13.8909 11.6091 13.8684 11.5933L13.7836 11.5004L20.314 4.3456C20.5298 4.10922 20.7009 3.82859 20.8177 3.51975C20.9345 3.2109 20.9946 2.87988 20.9946 2.54559C20.9946 2.2113 20.9345 1.88028 20.8177 1.57144C20.7009 1.26259 20.5298 0.981967 20.314 0.745587C20.0982 0.509206 19.842 0.3217 19.5601 0.193772C19.2782 0.0658437 18.976 -2.49067e-09 18.6709 0C18.3657 2.49067e-09 18.0635 0.0658437 17.7816 0.193772C17.4997 0.3217 17.2435 0.509207 17.0277 0.745587L10.4973 7.89943L3.96689 0.745587C3.53111 0.268196 2.94005 0 2.32375 0C1.70746 0 1.1164 0.268196 0.680612 0.745587C0.244823 1.22298 0 1.87046 0 2.54559C0 3.22072 0.244823 3.86821 0.680612 4.3456L7.21102 11.4994L7.12488 11.5938C7.10304 11.6095 7.0833 11.6284 7.06623 11.65C7.0479 11.6746 5.19856 14.084 2.69399 13.9525C2.65646 13.9499 2.61885 13.9561 2.58364 13.9705C2.54842 13.9849 2.51638 14.0074 2.48962 14.0363C2.46248 14.0649 2.44099 14.0993 2.42649 14.1374C2.41198 14.1755 2.40478 14.2164 2.40531 14.2577C2.40531 14.3079 2.41723 19.5006 0.0684428 22.4967C0.0669239 22.4986 0.0655448 22.5006 0.0643189 22.5028C0.0582558 22.5113 0.0525971 22.5202 0.0473651 22.5294C0.042783 22.5374 0.0377427 22.5449 0.034077 22.553C0.0297562 22.5618 0.0260791 22.5711 0.02308 22.5806C0.0198725 22.5896 0.0162069 22.5981 0.0134576 22.6077C0.0107083 22.6172 0.00979188 22.6257 0.00795904 22.6353C0.0061262 22.6448 0.00429334 22.6549 0.00337692 22.6644C0.0024605 22.6739 0.00337692 22.6835 0.00337692 22.693C0.00337692 22.7025 0.00337692 22.7126 0.00337692 22.7221C0.00337692 22.7317 0.00658441 22.7412 0.00795904 22.7512C0.00933367 22.7613 0.0111665 22.7698 0.0134576 22.7788C0.0157486 22.7879 0.0198725 22.7969 0.02308 22.8059C0.0260791 22.8154 0.0297562 22.8247 0.034077 22.8335C0.0377427 22.8416 0.042783 22.8491 0.0473651 22.8571C0.0525971 22.8663 0.0582558 22.8752 0.0643189 22.8837C0.0655448 22.8859 0.0669239 22.8879 0.0684428 22.8898C0.0721084 22.8948 0.0771488 22.8983 0.0808145 22.9028C0.0861137 22.9095 0.0917751 22.9159 0.0977683 22.9219C0.0977683 22.9219 0.101892 22.9244 0.103267 22.9259C0.125603 22.9458 0.150651 22.9617 0.177497 22.9731C0.182523 22.9755 0.187738 22.9773 0.193076 22.9786C0.220086 22.9888 0.248368 22.9944 0.276928 22.9952C0.305341 22.9944 0.333473 22.9888 0.360323 22.9786C0.365792 22.9772 0.371154 22.9754 0.37636 22.9731C0.403109 22.9618 0.42802 22.9459 0.450132 22.9259C0.452217 22.9248 0.454209 22.9234 0.456089 22.9219C3.19206 20.3464 7.92812 20.3619 7.97715 20.3619C8.01463 20.3623 8.05179 20.3543 8.08635 20.3384C8.1209 20.3225 8.15212 20.299 8.17808 20.2694C8.20405 20.2398 8.22421 20.2046 8.23732 20.1662C8.25044 20.1277 8.25624 20.0867 8.25437 20.0457C8.13386 17.3025 10.3342 15.2771 10.3562 15.2556C10.3598 15.2525 10.3621 15.2485 10.3653 15.2455C10.3685 15.2425 10.3727 15.2395 10.3754 15.2365L10.4982 15.102L10.621 15.2365C10.6271 15.2432 10.6335 15.2496 10.6403 15.2556C10.6623 15.2756 12.8626 17.3025 12.7421 20.0457C12.7403 20.0867 12.7461 20.1276 12.7593 20.166C12.7724 20.2045 12.7926 20.2395 12.8186 20.2691C12.8719 20.3274 12.9439 20.3607 13.0193 20.3619C13.0651 20.3654 17.8053 20.3489 20.5404 22.9219C20.5926 22.9738 20.6611 23.0018 20.7317 22.9999C20.8022 22.9981 20.8694 22.9665 20.9194 22.9119C20.9693 22.8573 20.9981 22.7837 20.9999 22.7064C21.0017 22.6291 20.9763 22.5541 20.9289 22.4967C18.5774 19.4996 18.5893 14.3079 18.5893 14.2577ZM17.4163 1.17225C17.7493 0.811358 18.1991 0.60949 18.6675 0.610741C19.1359 0.611992 19.5848 0.81626 19.9161 1.17892C20.2475 1.54159 20.4344 2.03317 20.436 2.54628C20.4375 3.0594 20.2537 3.55234 19.9245 3.91743L10.1798 14.5935L7.6729 11.8483L17.4163 1.17225ZM1.07009 3.91743C0.740955 3.55234 0.557091 3.0594 0.55866 2.54628C0.56023 2.03317 0.747108 1.54159 1.07847 1.17892C1.40983 0.81626 1.85874 0.611992 2.32714 0.610741C2.79554 0.60949 3.24536 0.811358 3.57833 1.17225L10.1078 8.32609L7.6005 11.0728L1.07009 3.91743ZM7.6981 19.7601C6.86874 19.7852 4.39899 19.9574 2.15376 21.0652L4.76281 18.204C5.04668 18.4103 5.39035 18.4937 5.72718 18.4381C6.06401 18.3826 6.37001 18.192 6.58588 17.9034C6.80175 17.6147 6.9121 17.2486 6.89554 16.8758C6.87898 16.5031 6.73669 16.1504 6.49626 15.8861C6.25582 15.6218 5.93437 15.4647 5.5942 15.4452C5.25404 15.4258 4.9194 15.5454 4.65514 15.7808C4.39089 16.0163 4.21585 16.3508 4.16395 16.7196C4.11205 17.0884 4.18699 17.4652 4.37424 17.7769L1.76245 20.638C2.77326 18.1749 2.92997 15.4679 2.95379 14.5644C5.11792 14.5342 6.73998 12.9124 7.28983 12.28L9.78021 15.0106C9.20286 15.6129 7.72239 17.3879 7.6981 19.7601ZM4.9383 16.3127C5.07322 16.1648 5.25076 16.0728 5.44068 16.0523C5.63059 16.0318 5.82112 16.084 5.9798 16.2002C6.13847 16.3163 6.25548 16.4891 6.31087 16.6892C6.36626 16.8892 6.35662 17.1041 6.28357 17.2973C6.21053 17.4904 6.07861 17.6498 5.9103 17.7483C5.74198 17.8469 5.54769 17.8784 5.36053 17.8376C5.17337 17.7967 5.00493 17.6861 4.8839 17.5245C4.76288 17.3628 4.69676 17.1602 4.69682 16.9512C4.69668 16.8326 4.71795 16.7151 4.75939 16.6055C4.80083 16.4959 4.86163 16.3964 4.9383 16.3127ZM11.0013 14.7973L10.8872 14.6728L13.3946 11.9261L13.5174 12.0606C13.5257 12.0699 13.5348 12.0785 13.5444 12.0862C13.8372 12.4557 15.5912 14.5312 18.0427 14.5614C18.066 15.4694 18.2232 18.1754 19.234 20.6375L16.6222 17.7764C16.7959 17.4869 16.8731 17.1406 16.8409 16.796C16.8087 16.4514 16.669 16.1294 16.4453 15.8845C16.2613 15.683 16.0289 15.5428 15.775 15.4802C15.5211 15.4177 15.2563 15.4354 15.0112 15.5312C14.7661 15.6271 14.551 15.7971 14.3906 16.0217C14.2303 16.2462 14.1315 16.516 14.1056 16.7996C14.0797 17.0832 14.1279 17.3691 14.2444 17.624C14.361 17.8788 14.5412 18.0922 14.7641 18.2393C14.9869 18.3864 15.2434 18.4612 15.5035 18.4549C15.7637 18.4487 16.0168 18.3617 16.2336 18.204L18.8431 21.0652C16.5947 19.9579 14.1236 19.7862 13.2961 19.7601C13.2676 16.9476 11.1915 14.973 11.0013 14.7973ZM14.8915 17.5891C14.776 17.4629 14.6973 17.3019 14.6653 17.1266C14.6334 16.9512 14.6496 16.7695 14.712 16.6043C14.7744 16.4391 14.8801 16.2978 15.0158 16.1985C15.1514 16.0991 15.311 16.0461 15.4742 16.0461C15.6374 16.0461 15.7969 16.0991 15.9326 16.1985C16.0682 16.2978 16.1739 16.4391 16.2363 16.6043C16.2987 16.7695 16.3149 16.9512 16.283 17.1266C16.251 17.3019 16.1723 17.4629 16.0568 17.5891C15.9021 17.7583 15.6925 17.8534 15.4739 17.8534C15.2554 17.8534 15.0462 17.7583 14.8915 17.5891Z" fill="#505456"/>
</svg>
