<svg width="83" height="35" viewBox="0 0 83 35" fill="none" xmlns="http://www.w3.org/2000/svg">
<path d="M82.0318 7C71.4967 7 62.4674 13.373 58.7796 22.3649C58.7486 22.4033 58.7286 22.4493 58.7242 22.5011C57.6157 25.252 57 28.2429 57 31.3728C57 31.5203 57.1241 31.64 57.2771 31.64C57.4301 31.64 57.5542 31.5203 57.5542 31.3728C57.5542 28.3466 58.1428 25.453 59.2036 22.7871C62.97 22.7652 66.6866 22.1527 69.9659 21.0057C69.9704 21.0041 69.9731 21.0004 69.9776 20.9988C69.9942 20.9918 70.008 20.9822 70.0224 20.9726C70.038 20.9619 70.0546 20.9539 70.0668 20.9405C70.0784 20.9293 70.0856 20.9159 70.0956 20.9036C70.1067 20.8887 70.1178 20.8742 70.1255 20.8571C70.1322 20.8427 70.1338 20.8261 70.1372 20.8106C70.1416 20.7925 70.1466 20.7754 70.1466 20.7561C70.1466 20.7518 70.1488 20.7476 70.1488 20.7438L69.9498 15.6236L75.3795 18.2056C75.42 18.2265 75.4643 18.2388 75.5098 18.2388C75.528 18.2388 75.5447 18.2259 75.5635 18.2227C75.5962 18.2158 75.6289 18.2115 75.6577 18.1939C75.6611 18.1917 75.6655 18.1928 75.6694 18.1907C79.9518 15.2971 82.31 11.4184 82.31 7.26777C82.3089 7.11919 82.1847 7 82.0318 7ZM75.4815 17.6589L69.7775 14.9465C69.7747 14.9454 69.7719 14.9459 69.7692 14.9443C69.747 14.9342 69.7237 14.9304 69.6993 14.9267C69.6855 14.9245 69.6722 14.9213 69.6583 14.9208C69.6539 14.9208 69.6495 14.9187 69.6445 14.9192C69.6312 14.9197 69.6201 14.9256 69.6073 14.9277C69.5885 14.931 69.5702 14.9336 69.5525 14.9406C69.5353 14.947 69.5209 14.9566 69.5059 14.9662C69.4915 14.9753 69.4777 14.9833 69.4649 14.9951C69.4505 15.0085 69.4405 15.024 69.4289 15.0395C69.4222 15.0496 69.4123 15.0566 69.4067 15.0672C69.405 15.071 69.405 15.0753 69.4034 15.079C69.3956 15.095 69.3929 15.1127 69.3895 15.1303C69.3857 15.148 69.3807 15.1651 69.3801 15.1832C69.3801 15.1875 69.3779 15.1912 69.3784 15.195L69.5868 20.5637C66.4777 21.6257 62.9783 22.2034 59.4225 22.2467C63.0726 13.7001 71.689 7.65472 81.7447 7.54142C81.6438 11.3655 79.4319 14.9432 75.4815 17.6589Z" fill="black"/>
<path fill-rule="evenodd" clip-rule="evenodd" d="M69.9775 20.9987C69.9753 20.9995 69.9735 21.0009 69.9717 21.0022C69.9699 21.0035 69.9681 21.0049 69.9659 21.0057C66.6866 22.1526 62.97 22.7651 59.2035 22.787C58.1427 25.453 57.5542 28.3466 57.5542 31.3727C57.5542 31.5202 57.43 31.6399 57.2771 31.6399C57.1241 31.6399 57 31.5202 57 31.3727C57 28.2429 57.6157 25.252 58.7241 22.5011C58.7286 22.4493 58.7485 22.4033 58.7795 22.3648C62.4673 13.3729 71.4966 6.99995 82.0317 6.99995C82.1847 6.99995 82.3088 7.11914 82.3099 7.26772C82.3099 11.4184 79.9518 15.297 75.6693 18.1906C75.6674 18.1917 75.6653 18.192 75.6634 18.1922C75.6613 18.1925 75.6594 18.1927 75.6577 18.1938C75.6334 18.2087 75.6065 18.214 75.579 18.2195C75.5739 18.2205 75.5687 18.2216 75.5635 18.2227C75.5552 18.2241 75.5474 18.2273 75.5396 18.2306C75.5297 18.2347 75.52 18.2387 75.5097 18.2387C75.4643 18.2387 75.4199 18.2264 75.3795 18.2056L69.9498 15.6236L70.1488 20.7438C70.1488 20.7452 70.1484 20.7467 70.148 20.7483C70.1474 20.7508 70.1465 20.7534 70.1465 20.7561C70.1465 20.7728 70.1428 20.7879 70.1389 20.8036C70.1383 20.8059 70.1377 20.8082 70.1371 20.8106C70.1363 20.8146 70.1355 20.8186 70.1348 20.8227C70.1326 20.8344 70.1304 20.8464 70.1255 20.8571C70.1183 20.873 70.1082 20.8866 70.0979 20.9005L70.0956 20.9036C70.0918 20.9082 70.0885 20.9129 70.0852 20.9176C70.0796 20.9255 70.074 20.9334 70.0667 20.9405C70.0581 20.9499 70.0473 20.9567 70.0362 20.9636C70.0316 20.9665 70.0269 20.9694 70.0224 20.9725L70.0191 20.9747C70.0059 20.9836 69.9929 20.9923 69.9775 20.9987ZM70.2816 21.1499C70.2529 21.1797 70.2249 21.1988 70.2106 21.2082C70.2033 21.213 70.1953 21.2179 70.1935 21.2191C70.1925 21.2197 70.1918 21.2201 70.1915 21.2204L70.189 21.2221C70.1884 21.2224 70.1876 21.2229 70.1866 21.2236C70.178 21.2295 70.1534 21.2463 70.1217 21.2623C70.1084 21.2702 70.0903 21.2797 70.0679 21.2878L70.0649 21.2889C66.8108 22.427 63.1357 23.0427 59.4087 23.0853C58.4079 25.6651 57.8542 28.4566 57.8542 31.3727C57.8542 31.6961 57.5854 31.94 57.2771 31.94C56.9688 31.94 56.7 31.6961 56.7 31.3727C56.7 28.2159 57.3185 25.1987 58.4323 22.4227C58.4463 22.3469 58.4755 22.278 58.5155 22.218C62.2577 13.1317 71.3869 6.69995 82.0317 6.69995C82.3405 6.69995 82.6075 6.94327 82.6099 7.26548L82.61 7.26772C82.61 11.5428 80.1793 15.5053 75.8373 18.4392L75.826 18.4468L75.8141 18.4534C75.7986 18.4619 75.7837 18.4684 75.7703 18.4732C75.7387 18.4879 75.7099 18.4968 75.6878 18.5025C75.6735 18.5063 75.6545 18.5103 75.6413 18.513C75.6327 18.5164 75.6198 18.5211 75.6049 18.5253C75.5822 18.5317 75.5494 18.5387 75.5097 18.5387C75.4119 18.5387 75.3226 18.5129 75.247 18.4748L70.2688 16.1075L70.449 20.7438C70.449 20.7589 70.4476 20.772 70.4463 20.7825C70.4458 20.7867 70.4452 20.7905 70.4447 20.7941C70.4409 20.8334 70.4327 20.8663 70.4297 20.8776C70.4294 20.8793 70.4289 20.882 70.4283 20.8851C70.4277 20.8884 70.4269 20.8922 70.4261 20.8961C70.4226 20.9127 70.4151 20.9452 70.3983 20.9818C70.3765 21.0295 70.3469 21.0686 70.3384 21.0798C70.3376 21.0808 70.337 21.0816 70.3366 21.0821L70.3287 21.0928L70.3256 21.0972C70.3187 21.1068 70.3037 21.1275 70.2816 21.1499ZM70.4385 20.8233L70.4378 20.8259L70.4375 20.8271C70.4377 20.8265 70.438 20.8251 70.4385 20.8233ZM69.7691 14.9443C69.771 14.9454 69.7729 14.9455 69.7747 14.9457C69.7756 14.9459 69.7765 14.9461 69.7774 14.9464L75.4814 17.6588C79.3284 15.0144 81.5266 11.5524 81.7324 7.84153C81.7379 7.74165 81.742 7.64159 81.7446 7.54137C81.6444 7.5425 81.5443 7.54422 81.4444 7.54652C71.6361 7.7727 63.2388 13.6426 59.5539 21.9448C59.5094 22.0451 59.4656 22.1457 59.4224 22.2467C59.5322 22.2454 59.6418 22.2435 59.7514 22.2412C63.1939 22.1673 66.5736 21.5929 69.5868 20.5637L69.3784 15.1949C69.3781 15.1929 69.3786 15.1909 69.3791 15.1888C69.3796 15.187 69.3801 15.1851 69.3801 15.1832C69.3805 15.1688 69.3837 15.1551 69.387 15.1412C69.3878 15.1376 69.3887 15.1339 69.3895 15.1303C69.3898 15.1286 69.3901 15.1269 69.3904 15.1253C69.3934 15.1093 69.3963 15.0935 69.4033 15.079C69.4042 15.0771 69.4046 15.0751 69.405 15.0731C69.4054 15.0711 69.4058 15.0691 69.4067 15.0672C69.4097 15.0612 69.4142 15.0565 69.4187 15.0516C69.4223 15.0478 69.4259 15.0439 69.4288 15.0394C69.4314 15.036 69.4338 15.0327 69.4362 15.0293C69.445 15.0173 69.4536 15.0055 69.4649 14.995C69.4758 14.9849 69.4876 14.9776 69.4998 14.97C69.5018 14.9687 69.5038 14.9675 69.5059 14.9662L69.5088 14.9643C69.5228 14.9553 69.5364 14.9465 69.5524 14.9405C69.5685 14.9342 69.5851 14.9314 69.6021 14.9286C69.6038 14.9283 69.6056 14.928 69.6073 14.9277C69.6126 14.9268 69.6176 14.9253 69.6225 14.9238C69.6296 14.9216 69.6366 14.9195 69.6444 14.9191C69.6472 14.9188 69.6499 14.9194 69.6525 14.9199C69.6544 14.9204 69.6564 14.9208 69.6583 14.9208C69.668 14.9211 69.6775 14.9228 69.6871 14.9245C69.6911 14.9253 69.6952 14.926 69.6993 14.9266C69.7237 14.9304 69.747 14.9341 69.7691 14.9443ZM69.6246 14.6198C69.6465 14.6183 69.6653 14.6193 69.6796 14.6208C69.6843 14.6213 69.6887 14.6219 69.6927 14.6225C69.7079 14.6239 69.7203 14.6259 69.7283 14.6272L69.7417 14.6296C69.7448 14.6301 69.7453 14.6302 69.745 14.6301C69.7461 14.6303 69.7474 14.6305 69.7487 14.6307C69.7683 14.6336 69.8138 14.6404 69.8645 14.6593C69.871 14.6613 69.878 14.6637 69.8854 14.6665L69.896 14.6706L75.4533 17.3132C79.1482 14.7259 81.2272 11.3895 81.4316 7.8469C71.7993 8.0766 63.5506 13.8147 59.8856 21.9379C63.1707 21.8543 66.3914 21.3111 69.2783 20.351L69.0788 15.211C69.0774 15.1864 69.0792 15.1659 69.0812 15.1512C69.0815 15.1493 69.0818 15.1475 69.082 15.1457C69.084 15.1252 69.0872 15.1081 69.0897 15.0961C69.0915 15.0874 69.0933 15.0797 69.0943 15.0751L69.0952 15.0713C69.097 15.0603 69.1036 15.024 69.1184 14.9837C69.1214 14.9734 69.126 14.9601 69.1325 14.9454L69.1362 14.9371L69.1403 14.9291C69.1525 14.9056 69.1655 14.8873 69.1757 14.8744C69.1821 14.8662 69.1882 14.8592 69.1924 14.8545L69.1948 14.8512C69.1977 14.8473 69.2025 14.8407 69.2079 14.8336C69.2191 14.8191 69.2367 14.7975 69.2609 14.7751C69.2968 14.7419 69.3387 14.7167 69.3451 14.7129C69.345 14.7129 69.3451 14.7129 69.3451 14.7129M69.6246 14.6198C69.5877 14.6221 69.5581 14.63 69.5446 14.6339L69.6246 14.6198Z" fill="black"/>
<path d="M19.8989 26C18.5069 26.72 17.3549 27.632 16.4429 28.736C16.0269 29.232 15.6589 29.696 15.3389 30.128C15.0189 30.56 14.7469 30.96 14.5229 31.328C13.3389 33.264 12.1469 34.12 10.9469 33.896C10.2749 33.784 9.73088 33.408 9.31488 32.768C8.94688 32.24 8.81088 31.424 8.90688 30.32C9.00288 29.264 9.49888 27.888 10.3949 26.192C10.4589 26.096 10.5389 26.032 10.6349 26C10.7309 25.968 10.7949 25.992 10.8269 26.072C10.8589 26.168 10.8669 26.24 10.8509 26.288C10.8349 26.32 10.7789 26.432 10.6829 26.624C10.5869 26.832 10.4509 27.12 10.2749 27.488C9.95488 28.128 9.74688 28.768 9.65088 29.408C9.47488 30.656 9.89888 31.448 10.9229 31.784C11.5789 32.008 12.1629 31.936 12.6749 31.568C13.1869 31.232 13.6829 30.64 14.1629 29.792C14.7549 28.752 15.3629 27.84 15.9869 27.056C16.6109 26.272 17.2669 25.608 17.9549 25.064C18.2269 24.84 18.5229 24.632 18.8429 24.44C19.1789 24.232 19.5309 24.032 19.8989 23.84C20.2029 23.68 20.3549 23.744 20.3549 24.032C20.3389 24.336 20.3149 24.632 20.2829 24.92C20.2669 25.192 20.2349 25.448 20.1869 25.688C20.1709 25.8 20.0749 25.904 19.8989 26ZM29.8266 19.976L29.3466 21.896C29.2986 22.024 29.1546 22.136 28.9146 22.232C28.4506 22.392 27.9226 22.592 27.3306 22.832C26.7546 23.056 26.1146 23.312 25.4106 23.6L19.8906 26C19.5226 26 19.2826 25.704 19.1706 25.112C19.0586 24.52 19.2986 24.096 19.8906 23.84C19.9226 23.824 20.0746 23.76 20.3466 23.648C20.6346 23.52 21.0346 23.352 21.5466 23.144C20.8106 22.536 20.5306 21.808 20.7066 20.96C21.1066 18.864 22.3706 17.368 24.4986 16.472C24.8826 16.312 25.4026 16.4 26.0586 16.736C26.7306 17.088 27.2986 17.528 27.7626 18.056C27.9386 18.248 27.9626 18.416 27.8346 18.56C27.7066 18.704 27.5466 18.736 27.3546 18.656C26.4266 18.272 25.3786 18.216 24.2106 18.488C23.0746 18.744 22.3626 19.208 22.0746 19.88C21.9626 20.136 22.1386 20.472 22.6026 20.888C23.0506 21.288 23.4986 21.528 23.9466 21.608C25.2426 21.8 26.7226 21.36 28.3866 20.288C28.5626 20.176 28.7306 20.072 28.8906 19.976C29.0506 19.88 29.1946 19.8 29.3226 19.736C29.7546 19.48 29.9226 19.56 29.8266 19.976ZM33.1761 8.72C33.2401 8.608 33.2961 8.56 33.3441 8.576C33.4241 8.576 33.4881 8.744 33.5361 9.08C33.8241 11.56 34.0161 13.68 34.1121 15.44C34.1921 17.104 34.2561 18.44 34.3041 19.448C34.3681 20.456 34.4081 21.136 34.4241 21.488C34.5361 22.96 35.3361 23.744 36.8241 23.84C37.2561 23.872 37.4241 24.16 37.3281 24.704C37.1841 25.568 37.0161 26 36.8241 26C34.7281 26 33.6081 25.024 33.4641 23.072C33.4001 22.256 33.3441 21.44 33.2961 20.624C33.2641 19.792 33.2321 18.96 33.2001 18.128C33.1521 16.464 33.0561 15.12 32.9121 14.096C32.7681 13.056 32.5761 11.88 32.3361 10.568C32.2881 10.328 32.3121 10.128 32.4081 9.968L33.1761 8.72ZM48.4525 19.16C48.5165 19.08 48.6045 19.128 48.7165 19.304C48.8445 19.496 48.9165 19.896 48.9325 20.504C48.9645 21.144 48.9085 21.752 48.7645 22.328C48.4285 23.624 48.0125 24.28 47.5165 24.296C46.3485 24.344 45.3485 23.936 44.5165 23.072C43.9725 24.384 43.2045 25.176 42.2125 25.448C41.2365 25.704 40.2365 25.288 39.2125 24.2C38.3805 25.4 37.5805 26 36.8125 26C36.6525 26 36.5085 25.648 36.3805 24.944C36.2685 24.256 36.4125 23.888 36.8125 23.84C38.3805 23.664 39.5805 22.856 40.4125 21.416C40.4605 21.336 40.5165 21.296 40.5805 21.296C40.6605 21.296 40.7245 21.328 40.7725 21.392C40.8525 21.504 40.7325 21.856 40.4125 22.448C40.6685 22.912 41.3165 23.16 42.3565 23.192C43.6045 23.224 44.5565 22.144 45.2125 19.952C45.2445 19.84 45.2925 19.784 45.3565 19.784C45.4525 19.784 45.5245 19.816 45.5725 19.88C45.6205 19.96 45.6365 20.04 45.6205 20.12L45.3805 21.128C45.7165 21.48 46.2045 21.752 46.8445 21.944C47.5005 22.136 47.8765 22.112 47.9725 21.872C48.0685 21.648 47.9965 21.184 47.7565 20.48C47.7245 20.384 47.9565 19.944 48.4525 19.16ZM45.0685 13.568C45.1005 13.52 45.1565 13.504 45.2365 13.52C45.5245 13.616 45.7965 13.736 46.0525 13.88C46.3085 14.024 46.5485 14.2 46.7725 14.408C46.8365 14.472 46.8445 14.536 46.7965 14.6L45.7645 16.256C45.7325 16.304 45.6685 16.288 45.5725 16.208C45.5245 16.176 45.4045 16.104 45.2125 15.992C45.0365 15.88 44.7965 15.728 44.4925 15.536L43.7245 16.736C43.6925 16.8 43.6205 16.792 43.5085 16.712C43.4605 16.664 43.3085 16.56 43.0525 16.4C42.7965 16.24 42.4445 16.024 41.9965 15.752C41.9325 15.704 41.9245 15.664 41.9725 15.632L43.0285 14.072C43.0605 14.024 43.1165 14.008 43.1965 14.024C43.4045 14.104 43.6045 14.192 43.7965 14.288C43.9885 14.368 44.1725 14.472 44.3485 14.6L45.0685 13.568ZM43.5805 11.336C43.6125 11.272 43.6685 11.256 43.7485 11.288C44.0365 11.384 44.3085 11.504 44.5645 11.648C44.8205 11.792 45.0605 11.968 45.2845 12.176C45.3485 12.24 45.3645 12.304 45.3325 12.368L44.2765 14C44.2445 14.064 44.1725 14.048 44.0605 13.952C44.0125 13.92 43.8605 13.824 43.6045 13.664C43.3645 13.504 43.0125 13.288 42.5485 13.016C42.4845 12.968 42.4765 12.92 42.5245 12.872L43.5805 11.336Z" fill="black"/>
</svg>
