<svg width="83" height="35" viewBox="0 0 83 35" fill="none" xmlns="http://www.w3.org/2000/svg">
<path d="M70.1255 20.8571L70.2618 20.9199C70.2719 20.8978 70.2768 20.8775 70.2794 20.8652C70.2806 20.8594 70.2816 20.8538 70.2823 20.8502L70.2824 20.8495L70.2835 20.8437C70.2836 20.8433 70.2838 20.8428 70.2839 20.8422C70.2869 20.8308 70.2937 20.8045 70.2959 20.7742C70.2972 20.7674 70.2988 20.7567 70.2988 20.7438H70.2989L70.2987 20.738L70.1094 15.8656L75.3132 18.3402C75.3712 18.3697 75.4381 18.3888 75.5098 18.3888C75.5319 18.3888 75.5505 18.3849 75.5641 18.381C75.5771 18.3774 75.588 18.3729 75.5933 18.3707L75.5973 18.3691L75.598 18.3688C75.5993 18.3685 75.6008 18.3683 75.6025 18.368C75.623 18.3642 75.6687 18.3557 75.7127 18.3345C75.7212 18.3318 75.7312 18.3279 75.7418 18.322L75.7421 18.3226L75.7533 18.315C80.0656 15.4012 82.46 11.4807 82.46 7.26777L82.46 7.26665C82.4582 7.03125 82.2627 6.85 82.0318 6.85C71.4424 6.85 62.3636 13.2517 58.6482 22.2899C58.6124 22.34 58.5873 22.3985 58.5776 22.4635C57.4669 25.2266 56.85 28.2301 56.85 31.3728C56.85 31.6082 57.0465 31.79 57.2771 31.79C57.5077 31.79 57.7042 31.6082 57.7042 31.3728C57.7042 28.4017 58.2752 25.5592 59.3058 22.9364C63.0527 22.904 66.7486 22.2899 70.0154 21.1473L70.0154 21.1473L70.0169 21.1468C70.031 21.1417 70.0418 21.1356 70.0491 21.131C70.0727 21.1196 70.0921 21.1066 70.1024 21.0996C70.1037 21.0987 70.1048 21.098 70.1057 21.0973L70.1057 21.0973L70.1075 21.0961C70.1172 21.0895 70.1078 21.0963 70.1283 21.0829C70.1391 21.0758 70.1568 21.0635 70.1742 21.0452C70.1882 21.0311 70.1982 21.0176 70.2037 21.0099L70.2078 21.0042L70.2105 21.0003L70.2107 21C70.212 20.9982 70.2123 20.9979 70.2121 20.9981L70.2122 20.9982L70.2161 20.9929C70.2169 20.9919 70.2177 20.9908 70.2186 20.9896C70.2281 20.9769 70.2478 20.9507 70.2621 20.9191L70.1255 20.8571ZM70.1255 20.8571C70.1305 20.8464 70.1327 20.8345 70.1348 20.8227C70.1356 20.8187 70.1363 20.8146 70.1372 20.8106L70.0979 20.9005C70.1082 20.8866 70.1183 20.873 70.1255 20.8571ZM69.3895 15.1303L69.243 15.0981C69.2429 15.0986 69.2427 15.0995 69.2424 15.1008C69.2401 15.1098 69.2335 15.1365 69.2311 15.1644C69.2306 15.1666 69.2302 15.1691 69.2299 15.1717C69.2288 15.1796 69.2278 15.1907 69.2287 15.2038L69.4326 20.4576C66.4339 21.4684 63.0736 22.029 59.6524 22.0932C63.3112 13.7575 71.7444 7.8656 81.5894 7.69366C81.4358 11.3766 79.2908 14.8338 75.4676 17.4862L69.8419 14.811L69.8421 14.8106L69.8315 14.8065C69.8262 14.8045 69.8213 14.8029 69.8168 14.8017C69.7801 14.7872 69.7453 14.7819 69.7251 14.7789L69.7222 14.7784C69.7222 14.7784 69.7221 14.7784 69.7221 14.7784C69.7186 14.7779 69.7174 14.7777 69.7157 14.7773C69.7137 14.777 69.7111 14.7764 69.7036 14.7752C69.6964 14.774 69.6864 14.7725 69.6747 14.7715C69.6717 14.771 69.668 14.7705 69.6639 14.7701C69.6562 14.7692 69.6462 14.7687 69.6346 14.7695C69.61 14.771 69.5906 14.7768 69.5827 14.7792L69.5827 14.7792L69.5782 14.7805C69.578 14.7806 69.5779 14.7806 69.5777 14.7806C69.5623 14.7831 69.5304 14.7883 69.4989 14.8005C69.4671 14.8125 69.4407 14.8297 69.4281 14.8379C69.4269 14.8387 69.4258 14.8394 69.4248 14.8401L69.5059 14.9662M69.3895 15.1303L69.2421 15.1025C69.2423 15.1016 69.2425 15.1004 69.2428 15.099C69.2448 15.0875 69.2497 15.0595 69.2611 15.0303C69.2627 15.0244 69.2654 15.0159 69.2696 15.0063L69.2733 14.9981L69.2735 14.9982C69.286 14.9742 69.3017 14.9573 69.3067 14.9519L69.3073 14.9513C69.3073 14.9512 69.3074 14.9512 69.3074 14.9511L69.3087 14.9492L69.3089 14.9494C69.3094 14.9488 69.3101 14.9478 69.311 14.9465C69.3181 14.9366 69.3388 14.9075 69.3629 14.8851L69.3632 14.8848C69.3858 14.864 69.4112 14.8484 69.4223 14.8416C69.4238 14.8407 69.425 14.8399 69.4259 14.8393L69.5059 14.9662M69.3895 15.1303C69.3898 15.1286 69.3902 15.127 69.3905 15.1253C69.3934 15.1093 69.3964 15.0935 69.4034 15.079C69.4042 15.0771 69.4046 15.0751 69.405 15.0731C69.4055 15.0711 69.4059 15.0691 69.4067 15.0672C69.4098 15.0613 69.4143 15.0565 69.4187 15.0517C69.4223 15.0478 69.4259 15.044 69.4289 15.0395C69.4314 15.0361 69.4339 15.0327 69.4363 15.0294C69.4451 15.0173 69.4536 15.0056 69.4649 14.9951C69.4759 14.985 69.4876 14.9776 69.4999 14.97C69.5019 14.9688 69.5039 14.9675 69.5059 14.9662M69.3895 15.1303C69.3887 15.134 69.3879 15.1376 69.387 15.1413C69.3838 15.1551 69.3805 15.1688 69.3801 15.1832C69.3801 15.1852 69.3796 15.187 69.3792 15.1888C69.3787 15.1909 69.3781 15.193 69.3784 15.195L69.5525 14.9406C69.5364 14.9466 69.5228 14.9553 69.5089 14.9643L69.5059 14.9662M69.7955 14.7972C69.7963 14.7973 69.7975 14.7975 69.7991 14.7978L69.7955 14.7972ZM69.7955 14.7972L69.7954 14.7972L69.7948 14.7971C69.795 14.7972 69.7952 14.7972 69.7955 14.7972ZM70.2926 20.7885L70.2927 20.7881L70.2926 20.7885Z" fill="white" stroke="white" stroke-width="0.3"/>
<path d="M19.8989 26C18.5069 26.72 17.3549 27.632 16.4429 28.736C16.0269 29.232 15.6589 29.696 15.3389 30.128C15.0189 30.56 14.7469 30.96 14.5229 31.328C13.3389 33.264 12.1469 34.12 10.9469 33.896C10.2749 33.784 9.73088 33.408 9.31488 32.768C8.94688 32.24 8.81088 31.424 8.90688 30.32C9.00288 29.264 9.49888 27.888 10.3949 26.192C10.4589 26.096 10.5389 26.032 10.6349 26C10.7309 25.968 10.7949 25.992 10.8269 26.072C10.8589 26.168 10.8669 26.24 10.8509 26.288C10.8349 26.32 10.7789 26.432 10.6829 26.624C10.5869 26.832 10.4509 27.12 10.2749 27.488C9.95488 28.128 9.74688 28.768 9.65088 29.408C9.47488 30.656 9.89888 31.448 10.9229 31.784C11.5789 32.008 12.1629 31.936 12.6749 31.568C13.1869 31.232 13.6829 30.64 14.1629 29.792C14.7549 28.752 15.3629 27.84 15.9869 27.056C16.6109 26.272 17.2669 25.608 17.9549 25.064C18.2269 24.84 18.5229 24.632 18.8429 24.44C19.1789 24.232 19.5309 24.032 19.8989 23.84C20.2029 23.68 20.3549 23.744 20.3549 24.032C20.3389 24.336 20.3149 24.632 20.2829 24.92C20.2669 25.192 20.2349 25.448 20.1869 25.688C20.1709 25.8 20.0749 25.904 19.8989 26ZM29.8266 19.976L29.3466 21.896C29.2986 22.024 29.1546 22.136 28.9146 22.232C28.4506 22.392 27.9226 22.592 27.3306 22.832C26.7546 23.056 26.1146 23.312 25.4106 23.6L19.8906 26C19.5226 26 19.2826 25.704 19.1706 25.112C19.0586 24.52 19.2986 24.096 19.8906 23.84C19.9226 23.824 20.0746 23.76 20.3466 23.648C20.6346 23.52 21.0346 23.352 21.5466 23.144C20.8106 22.536 20.5306 21.808 20.7066 20.96C21.1066 18.864 22.3706 17.368 24.4986 16.472C24.8826 16.312 25.4026 16.4 26.0586 16.736C26.7306 17.088 27.2986 17.528 27.7626 18.056C27.9386 18.248 27.9626 18.416 27.8346 18.56C27.7066 18.704 27.5466 18.736 27.3546 18.656C26.4266 18.272 25.3786 18.216 24.2106 18.488C23.0746 18.744 22.3626 19.208 22.0746 19.88C21.9626 20.136 22.1386 20.472 22.6026 20.888C23.0506 21.288 23.4986 21.528 23.9466 21.608C25.2426 21.8 26.7226 21.36 28.3866 20.288C28.5626 20.176 28.7306 20.072 28.8906 19.976C29.0506 19.88 29.1946 19.8 29.3226 19.736C29.7546 19.48 29.9226 19.56 29.8266 19.976ZM33.1761 8.72C33.2401 8.608 33.2961 8.56 33.3441 8.576C33.4241 8.576 33.4881 8.744 33.5361 9.08C33.8241 11.56 34.0161 13.68 34.1121 15.44C34.1921 17.104 34.2561 18.44 34.3041 19.448C34.3681 20.456 34.4081 21.136 34.4241 21.488C34.5361 22.96 35.3361 23.744 36.8241 23.84C37.2561 23.872 37.4241 24.16 37.3281 24.704C37.1841 25.568 37.0161 26 36.8241 26C34.7281 26 33.6081 25.024 33.4641 23.072C33.4001 22.256 33.3441 21.44 33.2961 20.624C33.2641 19.792 33.2321 18.96 33.2001 18.128C33.1521 16.464 33.0561 15.12 32.9121 14.096C32.7681 13.056 32.5761 11.88 32.3361 10.568C32.2881 10.328 32.3121 10.128 32.4081 9.968L33.1761 8.72ZM48.4525 19.16C48.5165 19.08 48.6045 19.128 48.7165 19.304C48.8445 19.496 48.9165 19.896 48.9325 20.504C48.9645 21.144 48.9085 21.752 48.7645 22.328C48.4285 23.624 48.0125 24.28 47.5165 24.296C46.3485 24.344 45.3485 23.936 44.5165 23.072C43.9725 24.384 43.2045 25.176 42.2125 25.448C41.2365 25.704 40.2365 25.288 39.2125 24.2C38.3805 25.4 37.5805 26 36.8125 26C36.6525 26 36.5085 25.648 36.3805 24.944C36.2685 24.256 36.4125 23.888 36.8125 23.84C38.3805 23.664 39.5805 22.856 40.4125 21.416C40.4605 21.336 40.5165 21.296 40.5805 21.296C40.6605 21.296 40.7245 21.328 40.7725 21.392C40.8525 21.504 40.7325 21.856 40.4125 22.448C40.6685 22.912 41.3165 23.16 42.3565 23.192C43.6045 23.224 44.5565 22.144 45.2125 19.952C45.2445 19.84 45.2925 19.784 45.3565 19.784C45.4525 19.784 45.5245 19.816 45.5725 19.88C45.6205 19.96 45.6365 20.04 45.6205 20.12L45.3805 21.128C45.7165 21.48 46.2045 21.752 46.8445 21.944C47.5005 22.136 47.8765 22.112 47.9725 21.872C48.0685 21.648 47.9965 21.184 47.7565 20.48C47.7245 20.384 47.9565 19.944 48.4525 19.16ZM45.0685 13.568C45.1005 13.52 45.1565 13.504 45.2365 13.52C45.5245 13.616 45.7965 13.736 46.0525 13.88C46.3085 14.024 46.5485 14.2 46.7725 14.408C46.8365 14.472 46.8445 14.536 46.7965 14.6L45.7645 16.256C45.7325 16.304 45.6685 16.288 45.5725 16.208C45.5245 16.176 45.4045 16.104 45.2125 15.992C45.0365 15.88 44.7965 15.728 44.4925 15.536L43.7245 16.736C43.6925 16.8 43.6205 16.792 43.5085 16.712C43.4605 16.664 43.3085 16.56 43.0525 16.4C42.7965 16.24 42.4445 16.024 41.9965 15.752C41.9325 15.704 41.9245 15.664 41.9725 15.632L43.0285 14.072C43.0605 14.024 43.1165 14.008 43.1965 14.024C43.4045 14.104 43.6045 14.192 43.7965 14.288C43.9885 14.368 44.1725 14.472 44.3485 14.6L45.0685 13.568ZM43.5805 11.336C43.6125 11.272 43.6685 11.256 43.7485 11.288C44.0365 11.384 44.3085 11.504 44.5645 11.648C44.8205 11.792 45.0605 11.968 45.2845 12.176C45.3485 12.24 45.3645 12.304 45.3325 12.368L44.2765 14C44.2445 14.064 44.1725 14.048 44.0605 13.952C44.0125 13.92 43.8605 13.824 43.6045 13.664C43.3645 13.504 43.0125 13.288 42.5485 13.016C42.4845 12.968 42.4765 12.92 42.5245 12.872L43.5805 11.336Z" fill="white"/>
</svg>
