<svg width="8" height="13" viewBox="0 0 8 13" fill="none" xmlns="http://www.w3.org/2000/svg">
<path d="M4 0C1.79758 0 0 1.34942 0 3.00279C0 4.65615 1.79755 6 4 6C6.20242 6 8 4.65622 8 3.00279C8 1.34944 6.20245 0 4 0ZM4 0.74787C5.6626 0.74787 6.99616 1.75465 6.99616 3.00285C6.99616 4.25095 5.66252 5.25206 4 5.25206C2.3374 5.25206 0.996161 4.2509 0.996161 3.00285C0.996161 1.75474 2.33728 0.74787 4 0.74787Z" fill="white"/>
<path d="M4.00375 8C1.80584 8 0 9.35012 0 11.017V12.6139H0.000938079C6.00515e-08 12.7164 0.0525321 12.8152 0.14728 12.8874C0.241087 12.9603 0.369604 13.0007 0.502819 13C0.777669 12.9978 0.999061 12.8253 0.998125 12.6139V11.017C0.998125 9.77514 2.33489 8.76701 4.00478 8.76701C5.67467 8.76701 7.00375 9.77581 7.00375 11.017V12.6139H7.00281C7.00281 12.7164 7.05534 12.8152 7.14915 12.8874C7.2439 12.9603 7.37148 13.0007 7.50563 13C7.78048 12.9978 8.00093 12.8254 8 12.6139V11.017C8 9.35015 6.20269 8 4.00375 8Z" fill="white"/>
</svg>
